<?xml version="1.0" encoding="UTF-8" standalone="no"?>
<!DOCTYPE svg PUBLIC "-//W3C//DTD SVG 20010904//EN"
              "http://www.w3.org/TR/2001/REC-SVG-20010904/DTD/svg10.dtd">

<svg xmlns="http://www.w3.org/2000/svg"
     width="4.63542in" height="4.02083in"
     viewBox="0 0 445 386">
  <path id="Selection #8" transform="translate(-130, 0)"
        fill="none" stroke="black" stroke-width="1"
        d="M 195.43,215.00
           C 194.06,213.14 192.37,211.18 191.59,209.00
             190.83,206.83 191.01,203.35 191.00,201.00
             190.93,188.42 185.53,189.04 181.36,179.00
             178.94,173.17 181.39,171.29 180.78,166.00
             180.25,161.46 178.19,159.83 178.01,152.00
             177.80,142.82 181.71,130.86 186.34,123.00
             189.66,117.38 190.12,114.80 197.00,114.00
             194.05,124.98 194.18,120.85 190.41,129.00
             190.41,129.00 185.20,149.00 185.20,149.00
             184.85,152.64 185.72,158.76 190.11,159.52
             191.88,159.82 207.92,157.17 218.00,161.21
             223.81,163.53 231.05,168.07 236.00,171.89
             239.39,174.51 243.10,178.33 247.00,179.85
             253.27,182.31 263.74,181.03 270.00,179.00
             270.00,179.00 273.00,180.00 273.00,180.00
             273.00,180.00 270.00,183.00 270.00,183.00
             271.49,185.10 271.94,185.47 272.79,188.00
             272.79,188.00 274.08,193.00 274.08,193.00
             275.98,204.04 259.30,198.65 254.00,199.48
             249.30,200.21 245.77,204.38 241.00,205.59
             237.14,206.56 231.85,205.09 229.01,212.01
             228.39,213.52 228.04,215.38 228.36,217.00
             229.32,221.92 233.19,221.59 236.00,226.00
             227.90,226.99 228.80,226.47 222.00,222.00
             222.00,222.00 221.00,223.00 221.00,223.00
             221.00,223.00 223.00,228.00 223.00,228.00
             212.34,226.17 219.93,218.30 220.25,214.96
             220.62,211.14 218.10,204.36 214.87,202.21
             212.97,200.95 209.44,199.36 207.17,200.23
             204.78,201.15 200.19,206.08 201.94,208.78
             204.13,212.17 207.36,210.44 210.00,218.00
             210.00,218.00 202.00,215.00 202.00,215.00
             202.00,215.00 210.00,225.00 210.00,225.00
             202.10,224.16 199.90,221.11 195.43,215.00 Z" />
</svg>
