<?xml version="1.0" encoding="UTF-8" standalone="no"?>
<!DOCTYPE svg PUBLIC "-//W3C//DTD SVG 20010904//EN"
              "http://www.w3.org/TR/2001/REC-SVG-20010904/DTD/svg10.dtd">

<svg xmlns="http://www.w3.org/2000/svg"
     width="4.63542in" height="4.02083in"
     viewBox="0 0 445 386">
  <path id="Selection #2" transform="translate(-130, 0)"
        fill="none" stroke="black" stroke-width="1"
        d="M 154.00,154.01
           C 163.20,157.26 167.18,161.85 173.42,169.00
             176.23,172.22 180.15,177.05 185.00,175.93
             188.75,175.06 192.60,170.67 195.17,167.96
             199.91,162.95 203.25,159.66 209.00,155.75
             216.03,150.96 233.89,138.91 241.00,136.60
             247.21,134.57 252.65,135.07 259.00,135.00
             259.00,135.00 274.00,134.00 274.00,134.00
             274.00,134.00 273.31,137.00 273.31,137.00
             273.31,137.00 276.00,151.00 276.00,151.00
             267.93,159.36 266.62,148.93 253.00,153.00
             253.00,153.00 253.00,155.00 253.00,155.00
             255.23,155.75 258.84,156.73 260.40,158.51
             264.28,162.92 260.08,167.95 256.00,170.00
             256.00,170.00 257.00,166.00 257.00,166.00
             253.28,168.90 252.76,169.61 248.00,169.00
             248.00,169.00 250.00,165.00 250.00,165.00
             239.76,166.71 239.40,173.02 232.91,180.00
             225.31,188.16 218.03,191.17 214.34,195.18
             210.38,199.48 209.84,204.45 207.30,207.91
             204.17,212.18 196.12,215.83 195.62,219.17
             194.89,224.08 203.26,225.00 206.00,228.84
             204.16,229.00 200.67,229.09 199.00,228.84
             195.70,227.90 188.90,222.99 187.60,219.83
             186.97,218.31 187.06,216.60 187.00,215.00
             187.00,215.00 177.00,217.00 177.00,217.00
             177.06,222.67 176.77,223.93 181.00,228.00
             181.00,228.00 181.00,230.00 181.00,230.00
             174.02,231.47 174.07,226.56 174.00,221.00
             173.96,217.68 173.62,211.88 175.02,209.00
             176.87,205.19 181.85,202.16 181.74,195.00
             181.58,184.63 177.65,185.97 172.39,179.90
             168.62,175.55 166.94,169.01 158.00,162.64
             152.08,158.42 146.47,158.37 140.00,156.00
             143.34,150.07 148.59,152.10 154.00,154.01 Z" />
</svg>
