<?xml version="1.0" encoding="UTF-8" standalone="no"?>
<!DOCTYPE svg PUBLIC "-//W3C//DTD SVG 20010904//EN"
              "http://www.w3.org/TR/2001/REC-SVG-20010904/DTD/svg10.dtd">

<svg xmlns="http://www.w3.org/2000/svg"
     width="4.63542in" height="4.02083in"
     viewBox="0 0 445 386">
  <path id="Selection #7" transform="translate(-130, 0)"
        fill="none" stroke="black" stroke-width="1"
        d="M 190.77,157.00
           C 190.77,157.00 187.43,147.00 187.43,147.00
             184.90,136.34 183.78,125.89 186.00,115.00
             187.14,109.43 187.67,105.82 193.00,103.00
             193.00,103.00 191.10,124.00 191.10,124.00
             190.85,129.71 193.43,144.06 196.27,148.94
             199.60,154.65 211.96,155.43 218.00,158.42
             229.48,164.12 242.82,177.65 251.00,180.30
             253.63,181.16 256.27,180.93 259.00,181.19
             259.00,181.19 264.00,181.19 264.00,181.19
             267.08,180.82 270.50,177.62 274.00,176.00
             274.00,176.00 273.00,180.00 273.00,180.00
             273.00,180.00 278.00,178.00 278.00,178.00
             278.00,178.00 274.00,183.00 274.00,183.00
             275.40,183.45 276.24,183.43 277.59,184.59
             278.73,185.92 282.83,195.07 277.59,197.66
             274.08,199.55 265.88,197.99 262.00,198.82
             257.96,199.68 253.83,203.95 250.00,205.95
             246.11,207.99 243.11,207.74 241.18,209.01
             237.04,211.74 239.94,220.78 243.23,223.26
             245.34,224.86 247.51,224.85 250.00,225.00
             250.00,225.00 250.00,228.00 250.00,228.00
             243.30,228.00 239.64,229.02 235.36,222.96
             233.02,219.64 232.45,217.96 232.00,214.00
             227.23,216.68 226.21,219.89 225.00,225.00
             225.00,225.00 229.00,225.00 229.00,225.00
             229.00,225.00 229.00,228.00 229.00,228.00
             229.00,228.00 221.00,228.00 221.00,228.00
             219.87,219.49 224.45,209.37 221.97,205.39
             220.24,202.61 213.05,200.04 210.00,198.36
             207.94,197.22 202.70,192.66 200.54,194.03
             198.48,195.33 200.72,198.60 201.21,200.00
             203.48,204.08 204.24,205.48 201.21,209.00
             201.21,209.00 190.00,189.00 190.00,189.00
             190.00,189.00 186.00,190.00 186.00,190.00
             186.35,187.73 186.99,185.29 186.68,183.00
             186.02,178.16 181.29,172.43 188.00,170.00
             188.23,161.03 191.18,161.02 190.77,157.00 Z" />
</svg>
