<?xml version="1.0" encoding="UTF-8" standalone="no"?>
<!DOCTYPE svg PUBLIC "-//W3C//DTD SVG 20010904//EN"
              "http://www.w3.org/TR/2001/REC-SVG-20010904/DTD/svg10.dtd">

<svg xmlns="http://www.w3.org/2000/svg"
     width="4.63542in" height="4.02083in"
     viewBox="0 0 445 386">
  <path id="Selection #5" transform="translate(-130, 0)"
        fill="none" stroke="black" stroke-width="1"
        d="M 183.88,77.00
           C 186.03,82.00 189.02,86.20 193.01,89.90
             197.97,94.48 209.36,97.84 217.00,102.69
             217.00,102.69 236.00,116.01 236.00,116.01
             241.85,120.53 248.47,126.15 256.00,127.24
             258.11,127.55 272.80,125.97 275.00,125.37
             275.00,125.37 283.00,123.00 283.00,123.00
             282.50,124.41 281.33,126.90 281.58,128.34
             281.86,129.92 286.37,134.55 284.68,140.89
             282.72,148.23 273.34,140.41 269.17,147.23
             265.01,154.04 272.07,170.39 276.39,176.00
             279.63,180.21 281.39,180.52 283.00,186.00
             271.89,185.10 272.20,175.93 263.00,169.00
             263.00,169.00 264.15,181.00 264.15,181.00
             264.15,181.00 270.00,192.00 270.00,192.00
             262.96,190.86 261.67,186.90 258.76,181.00
             252.85,169.03 254.49,165.35 244.72,155.05
             239.88,149.95 234.11,148.98 228.00,145.69
             228.00,145.69 209.00,135.76 209.00,135.76
             205.29,133.39 200.84,129.25 197.00,127.88
             192.82,126.38 188.29,127.44 184.00,126.67
             177.12,125.44 174.65,120.74 171.09,121.53
             166.07,122.65 166.59,130.92 158.00,134.00
             157.82,128.67 160.66,125.74 163.00,121.00
             163.00,121.00 156.00,121.00 156.00,121.00
             157.96,117.02 162.57,109.69 167.00,108.41
             169.27,107.75 170.90,108.95 173.00,109.27
             178.19,110.07 186.50,103.39 192.00,101.00
             187.81,95.28 184.86,94.39 181.63,89.99
             176.87,83.48 176.29,77.24 174.08,70.00
             172.70,65.49 171.70,65.17 171.00,60.00
             181.06,63.00 180.37,68.85 183.88,77.00 Z" />
</svg>
