<?xml version="1.0" encoding="UTF-8" standalone="no"?>
<!DOCTYPE svg PUBLIC "-//W3C//DTD SVG 20010904//EN"
              "http://www.w3.org/TR/2001/REC-SVG-20010904/DTD/svg10.dtd">

<svg xmlns="http://www.w3.org/2000/svg"
     width="4.63542in" height="4.02083in"
     viewBox="0 0 445 386">
  <path id="Selection #6" transform="translate(-130, 0)"
        fill="none" stroke="black" stroke-width="1"
        d="M 196.04,108.00
           C 197.77,111.98 207.19,127.42 209.90,131.00
             209.90,131.00 218.39,141.00 218.39,141.00
             218.39,141.00 230.92,157.00 230.92,157.00
             235.01,161.99 238.68,167.57 244.00,171.36
             246.65,173.26 262.61,179.33 266.00,180.20
             272.95,181.99 273.58,177.66 281.00,179.00
             280.45,180.08 279.64,181.16 279.61,182.43
             279.55,184.75 286.13,192.96 282.22,197.60
             279.19,201.20 268.24,198.15 264.09,200.21
             261.35,201.58 257.46,206.96 257.09,210.00
             256.56,214.32 261.27,223.79 265.04,226.07
             267.17,227.35 269.60,227.65 272.00,228.00
             269.48,231.76 263.97,231.87 260.17,229.69
             256.82,227.76 248.73,216.63 246.30,213.02
             244.66,210.57 242.66,207.48 239.14,208.66
             234.42,210.23 234.26,219.38 236.74,222.79
             238.34,225.00 241.64,226.63 244.00,228.00
             244.00,228.00 244.00,230.00 244.00,230.00
             231.64,232.82 229.16,218.10 228.17,209.00
             227.88,206.36 228.25,203.45 226.98,201.04
             224.50,196.37 218.35,195.18 213.44,189.90
             207.02,183.00 205.18,176.54 200.82,172.11
             195.33,166.53 192.30,169.26 189.56,164.77
             186.46,159.70 187.39,152.74 186.00,147.00
             180.29,151.55 176.97,156.20 169.00,155.00
             169.00,155.00 172.00,151.00 172.00,151.00
             172.00,151.00 170.00,149.00 170.00,149.00
             173.45,147.93 175.88,147.72 179.00,145.66
             181.35,144.11 185.70,140.06 188.00,139.30
             192.74,137.74 194.41,143.35 199.84,138.35
             200.55,137.69 201.39,136.79 201.66,135.83
             202.47,133.00 194.87,123.93 193.06,121.00
             187.86,112.55 189.13,111.70 187.68,103.00
             186.90,98.33 186.28,98.71 186.00,93.00
             193.88,95.37 193.17,101.39 196.04,108.00 Z" />
</svg>
