<?xml version="1.0" encoding="UTF-8" standalone="no"?>
<!DOCTYPE svg PUBLIC "-//W3C//DTD SVG 20010904//EN"
              "http://www.w3.org/TR/2001/REC-SVG-20010904/DTD/svg10.dtd">

<svg xmlns="http://www.w3.org/2000/svg"
     width="4.63542in" height="4.02083in"
     viewBox="0 0 445 386">
  <path id="Selection" transform="translate(-130, 0)"
        fill="none" stroke="black" stroke-width="1"
        d="M 162.00,135.00
           C 166.30,146.25 174.44,152.60 184.00,159.28
             188.05,162.11 192.94,165.51 198.00,165.88
             202.60,166.22 209.18,163.93 214.00,163.08
             221.56,161.76 226.43,161.91 234.00,162.00
             245.77,162.15 250.65,168.23 260.00,167.94
             266.12,167.75 268.66,164.80 274.00,162.81
             274.00,162.81 286.00,159.00 286.00,159.00
             288.83,162.84 295.27,168.46 293.36,173.89
             291.68,178.68 286.67,176.84 280.01,181.11
             275.83,183.79 273.69,187.28 270.56,191.00
             263.84,198.98 259.78,200.63 261.43,212.00
             261.72,214.01 262.20,217.21 263.17,218.94
             265.72,223.50 268.46,221.79 273.00,226.00
             259.07,232.15 251.03,215.19 249.00,204.00
             249.00,204.00 239.87,218.01 239.87,218.01
             239.87,218.01 224.00,224.47 224.00,224.47
             224.00,224.47 215.00,219.34 215.00,219.34
             215.00,219.34 208.74,212.96 208.74,212.96
             208.74,212.96 208.00,201.00 208.00,201.00
             202.83,203.54 190.14,210.52 190.41,216.99
             190.54,220.02 193.52,222.96 195.00,226.00
             185.84,225.46 185.80,222.80 184.82,215.00
             184.82,215.00 183.62,209.00 183.62,209.00
             183.15,203.84 187.02,201.63 188.49,197.00
             189.61,192.53 187.28,190.03 188.49,185.00
             189.52,181.76 192.69,177.60 191.52,174.82
             189.81,170.76 181.99,169.49 178.00,167.01
             169.40,161.66 157.29,145.72 159.00,135.00
             159.00,135.00 162.00,135.00 162.00,135.00 Z
           M 220.19,205.00
           C 218.54,206.90 215.93,209.93 217.15,212.63
             217.68,213.78 219.10,214.80 220.06,215.57
             224.65,219.26 226.39,220.53 231.98,217.80
             233.54,217.04 235.03,216.25 235.98,214.73
             237.18,212.79 237.97,200.83 238.00,198.00
             229.10,198.12 226.51,197.75 220.19,205.00 Z" />
</svg>
