<?xml version="1.0" encoding="UTF-8" standalone="no"?>
<!DOCTYPE svg PUBLIC "-//W3C//DTD SVG 20010904//EN"
              "http://www.w3.org/TR/2001/REC-SVG-20010904/DTD/svg10.dtd">

<svg xmlns="http://www.w3.org/2000/svg"
     width="4.63542in" height="4.02083in"
     viewBox="0 0 445 386">
  <path id="Selection #1" transform="translate(-130, 0)"
        fill="none" stroke="black" stroke-width="1"
        d="M 133.00,162.11
           C 141.26,162.48 143.91,169.81 149.04,174.96
             149.04,174.96 159.00,183.58 159.00,183.58
             161.46,185.57 165.87,189.61 169.28,188.80
             173.03,187.92 176.02,182.84 178.46,180.09
             180.94,177.29 186.88,172.53 190.00,170.30
             190.00,170.30 205.00,161.91 205.00,161.91
             205.00,161.91 218.00,152.39 218.00,152.39
             218.00,152.39 229.00,146.96 229.00,146.96
             229.00,146.96 238.00,141.99 238.00,141.99
             238.00,141.99 256.94,139.00 256.94,139.00
             252.93,147.24 259.73,149.95 256.94,155.94
             253.58,162.91 246.07,156.19 241.72,161.31
             237.00,166.88 242.51,169.55 244.26,174.04
             245.29,176.68 245.00,182.94 245.00,186.00
             238.81,183.83 242.15,179.84 238.57,178.25
             236.46,177.31 233.50,179.29 233.68,182.04
             233.87,184.85 237.64,188.15 238.99,191.00
             241.34,195.97 238.38,206.03 235.00,210.00
             232.16,203.19 234.94,202.11 233.40,198.04
             232.33,195.21 229.46,193.50 227.17,191.69
             226.30,191.00 224.82,189.60 223.75,189.32
             220.86,188.56 216.87,194.07 214.99,196.00
             214.99,196.00 202.91,209.37 202.91,209.37
             197.73,213.40 194.40,212.21 191.00,219.00
             191.00,219.00 206.00,222.00 206.00,222.00
             204.22,224.66 203.76,224.43 201.07,226.02
             199.78,226.79 198.14,228.02 196.72,228.40
             189.83,230.21 177.48,223.62 177.49,216.00
             177.50,214.22 178.34,212.60 179.00,211.00
             171.42,206.62 174.65,203.61 169.78,199.70
             167.64,197.98 163.68,197.00 161.00,195.60
             158.18,194.12 153.51,190.61 151.00,188.54
             140.09,179.56 139.25,173.96 126.00,165.00
             128.42,162.61 129.44,161.95 133.00,162.11 Z" />
</svg>
