<?xml version="1.0" encoding="UTF-8" standalone="no"?>
<!DOCTYPE svg PUBLIC "-//W3C//DTD SVG 20010904//EN"
              "http://www.w3.org/TR/2001/REC-SVG-20010904/DTD/svg10.dtd">

<svg xmlns="http://www.w3.org/2000/svg"
     width="4.63542in" height="4.02083in"
     viewBox="0 0 445 386">
  <path id="Selection #4" transform="translate(-130, 0)"
        fill="none" stroke="black" stroke-width="1"
        d="M 164.22,58.00
           C 164.22,58.00 157.42,49.00 157.42,49.00
             157.42,49.00 151.16,40.06 151.16,40.06
             150.10,37.13 152.45,35.89 155.02,36.66
             158.80,37.79 161.89,43.02 164.31,46.00
             172.01,55.47 180.18,68.71 194.00,67.91
             194.00,67.91 215.00,65.04 215.00,65.04
             215.00,65.04 231.00,66.17 231.00,66.17
             231.00,66.17 253.00,70.20 253.00,70.20
             253.00,70.20 267.00,72.41 267.00,72.41
             271.43,73.16 279.02,75.10 283.00,74.82
             283.00,74.82 291.00,74.00 291.00,74.00
             291.00,74.00 286.00,80.00 286.00,80.00
             287.25,80.80 288.09,81.04 288.98,82.41
             290.19,84.26 292.93,94.63 285.96,96.45
             283.03,97.21 273.38,93.98 270.00,93.00
             270.00,93.00 268.48,102.00 268.48,102.00
             268.48,102.00 272.85,110.00 272.85,110.00
             272.85,110.00 276.26,118.00 276.26,118.00
             276.26,118.00 284.00,131.00 284.00,131.00
             277.68,131.78 276.39,127.22 271.03,122.86
             266.77,119.40 263.63,114.96 259.83,111.02
             259.83,111.02 253.04,104.84 253.04,104.84
             250.90,102.84 248.60,99.84 245.91,98.74
             243.70,97.83 239.46,97.98 237.00,98.00
             237.00,98.00 216.00,98.99 216.00,98.99
             210.09,99.13 202.23,98.88 197.00,102.01
             190.68,105.79 188.08,111.69 183.68,117.00
             180.87,120.38 176.92,123.66 175.66,128.00
             174.33,132.62 177.66,139.63 178.00,147.00
             172.64,145.34 166.08,138.80 165.62,133.00
             165.62,133.00 165.62,122.00 165.62,122.00
             165.73,120.27 165.35,118.75 165.62,117.00
             166.22,114.71 169.02,110.56 170.20,108.00
             170.20,108.00 174.46,96.00 174.46,96.00
             177.21,88.18 177.53,83.86 183.00,77.00
             171.34,69.20 171.89,68.72 164.22,58.00 Z" />
</svg>
