<?xml version="1.0" encoding="UTF-8" standalone="no"?>
<!DOCTYPE svg PUBLIC "-//W3C//DTD SVG 20010904//EN"
              "http://www.w3.org/TR/2001/REC-SVG-20010904/DTD/svg10.dtd">

<svg xmlns="http://www.w3.org/2000/svg"
     width="4.63542in" height="4.02083in"
     viewBox="0 0 445 386">
  <path id="Selection #3" transform="translate(-130, 0)"
        fill="none" stroke="black" stroke-width="1"
        d="M 178.67,178.00
           C 178.67,178.00 185.33,156.00 185.33,156.00
             185.33,156.00 186.44,143.00 186.44,143.00
             186.97,139.72 189.46,133.58 188.65,131.00
             188.13,129.31 182.26,121.73 180.81,120.00
             180.81,120.00 165.63,102.60 165.63,102.60
             163.37,100.81 161.06,101.17 159.70,100.01
             158.40,98.80 158.43,96.90 159.70,95.59
             163.11,91.85 169.02,95.27 171.72,98.06
             175.32,101.79 182.00,108.94 184.77,113.00
             186.72,115.85 189.56,120.69 193.42,120.93
             198.44,121.23 208.50,111.97 213.00,109.09
             222.14,103.24 239.09,96.05 250.00,96.00
             276.25,95.88 265.73,104.07 289.00,101.00
             288.39,102.37 287.73,103.44 287.59,105.00
             287.39,107.22 292.19,119.80 284.89,122.01
             282.57,122.71 273.88,119.11 271.00,118.42
             269.13,117.67 266.27,116.77 264.74,118.42
             262.73,121.02 266.41,123.27 268.02,124.42
             273.63,128.48 279.61,136.44 270.00,140.00
             270.00,140.00 268.60,135.14 268.60,135.14
             265.06,128.02 257.46,132.58 252.00,133.00
             252.00,133.00 254.00,128.00 254.00,128.00
             251.60,127.59 248.32,126.63 246.00,127.00
             240.71,127.86 226.87,138.62 222.00,142.09
             217.68,145.17 212.04,147.85 208.91,152.09
             205.75,156.39 204.05,162.27 201.63,167.00
             198.79,172.53 194.62,175.35 194.28,182.00
             193.99,187.76 197.33,188.37 199.00,193.00
             186.57,192.56 190.12,181.71 188.00,173.00
             181.63,178.96 181.64,182.90 186.00,190.00
             177.20,192.22 177.31,184.39 178.67,178.00 Z" />
</svg>
